<?xml version="1.0" encoding="UTF-8"?>
<svg xmlns="http://www.w3.org/2000/svg" viewBox="0 -323 2250 660">
  <defs>
    <clipPath id="clippath">
      <path class="cls-3" d="m737.74,432.64c-70.7,84.14-169.63,224.74-169.63,328.33s76.1,180.23,169.63,180.23,169.63-80.85,169.63-180.23-98.92-244.17-169.63-328.33Z"></path>
    </clipPath>
    <style>.cls-1{clip-path:url(#clippath);}.cls-2{fill:#fff;}.cls-2,.cls-3,.cls-4{stroke:#509650;stroke-linecap:round;stroke-linejoin:round;stroke-width:11px;}.cls-3,.cls-5{fill:#91bf91;}.cls-6{fill:#509650;}.cls-4{fill:none;}</style>
  </defs>
  <g transform="matrix(1, 0, 0, 1, -100.43994, -295)">
    <line class="cls-4" x1="304" y1="513" x2="304" y2="597"></line>
    <path class="cls-5" d="M 304 2 C 233 86 134 226 134 330 C 134 434 210 510 304 510 C 397 510 473 429 473 330 C 473 231 374 86 304 2 Z"></path>
    <g class="cls-1" transform="matrix(1, 0, 0, 1, -433.53, -431)">
      <path class="cls-2" d="m789.66,102.77s-236.92,242.2-236.92,431.85c0,139.02,106.07,251.72,236.92,251.72s236.92-112.7,236.92-251.72c0-189.66-236.92-431.85-236.92-431.85Z"></path>
      <path class="cls-4" d="m737.74,859.78c-167.74,0-304.21-144.99-304.21-323.21,0-213.91,231.2-456.42,257.56-483.37l46.66-47.7,46.66,47.7c26.36,26.95,257.56,269.47,257.56,483.37,0,178.22-136.47,323.21-304.21,323.21Z"></path>
      <path class="cls-2" d="m737.74,208.24c-70.7,84.14-169.63,224.74-169.63,328.33s76.1,180.23,169.63,180.23,169.63-80.85,169.63-180.23-98.92-244.17-169.63-328.33Z"></path>
      <path class="cls-3" d="m765.47,284.85c-49.4,58.79-118.52,157.03-118.52,229.41s53.17,125.93,118.52,125.93,118.52-56.49,118.52-125.93-69.12-170.6-118.52-229.41Z"></path>
    </g>
    <path class="cls-4" d="M 304 2 C 233 86 134 226 134 330 C 134 434 210 510 304 510 C 397 510 473 429 473 330 C 473 231 374 86 304 2 Z"></path>
    <line class="cls-4" x1="304" y1="3" x2="304" y2="509"></line>
    <line class="cls-4" x1="353" y1="597" x2="254" y2="597"></line>
  </g>
  <path d="M 562 34 Q 542 34 530 23 Q 518 12 518 -8 L 540 -8 Q 540 2 545 9 Q 550 15 561 15 Q 573 15 577 9 Q 582 3 582 -7 L 582 -110 L 603 -110 L 603 -7 Q 603 13 592 24 Q 581 34 562 34 Z" style="fill: rgb(80, 150, 80); white-space: pre;"></path>
  <path d="M 679 34 Q 664 34 652 28 Q 641 21 634 9 Q 628 -2 628 -18 Q 628 -34 634 -46 Q 641 -58 652 -65 Q 664 -71 679 -71 Q 694 -71 705 -65 Q 716 -58 722 -47 Q 728 -36 728 -23 Q 728 -21 728 -19 Q 728 -16 727 -13 L 649 -13 Q 650 1 659 9 Q 667 17 679 17 Q 688 17 694 12 Q 700 8 703 1 L 725 1 Q 721 15 709 25 Q 697 34 679 34 Z M 679 -54 Q 668 -54 660 -47 Q 651 -41 649 -28 L 706 -28 Q 706 -40 698 -47 Q 690 -54 679 -54 Z" style="fill: rgb(80, 150, 80); white-space: pre;"></path>
  <path d="M 796 34 Q 782 34 770 28 Q 759 21 753 9 Q 747 -3 747 -19 Q 747 -34 753 -46 Q 759 -58 770 -64 Q 782 -71 796 -71 Q 808 -71 817 -67 Q 826 -62 832 -53 L 832 -114 L 853 -114 L 853 32 L 834 32 L 832 16 Q 827 23 818 29 Q 810 34 796 34 Z M 800 16 Q 814 16 823 6 Q 832 -3 832 -18 Q 832 -34 823 -43 Q 814 -53 800 -53 Q 786 -53 777 -43 Q 768 -34 768 -18 Q 768 -8 772 -1 Q 776 7 784 11 Q 791 16 800 16 Z" style="fill: rgb(80, 150, 80); white-space: pre;"></path>
  <path d="M 928 34 Q 913 34 901 28 Q 890 21 883 9 Q 877 -2 877 -18 Q 877 -34 883 -46 Q 890 -58 901 -65 Q 912 -71 928 -71 Q 943 -71 954 -65 Q 965 -58 971 -47 Q 977 -36 977 -23 Q 977 -21 977 -19 Q 977 -16 976 -13 L 898 -13 Q 899 1 907 9 Q 916 17 928 17 Q 937 17 943 12 Q 949 8 952 1 L 974 1 Q 970 15 958 25 Q 945 34 928 34 Z M 928 -54 Q 917 -54 908 -47 Q 900 -41 898 -28 L 955 -28 Q 955 -40 947 -47 Q 939 -54 928 -54 Z" style="fill: rgb(80, 150, 80); white-space: pre;"></path>
  <path d="M 999 32 L 999 -69 L 1018 -69 L 1020 -50 Q 1026 -60 1035 -65 Q 1044 -71 1058 -71 L 1058 -49 L 1052 -49 Q 1043 -49 1036 -46 Q 1029 -43 1025 -36 Q 1021 -29 1021 -16 L 1021 32 Z" style="fill: rgb(80, 150, 80); white-space: pre;"></path>
  <path d="M 1128 32 L 1128 -110 L 1182 -110 Q 1204 -110 1216 -100 Q 1227 -90 1227 -74 Q 1227 -60 1220 -52 Q 1212 -44 1202 -41 Q 1210 -40 1217 -35 Q 1223 -30 1227 -23 Q 1230 -15 1230 -7 Q 1230 4 1225 13 Q 1219 22 1209 27 Q 1199 32 1184 32 Z M 1150 -49 L 1179 -49 Q 1192 -49 1198 -55 Q 1205 -61 1205 -71 Q 1205 -81 1198 -87 Q 1192 -93 1179 -93 L 1150 -93 Z M 1150 14 L 1181 14 Q 1194 14 1201 8 Q 1208 2 1208 -9 Q 1208 -20 1201 -26 Q 1193 -33 1180 -33 L 1150 -33 Z" style="fill: rgb(80, 150, 80); white-space: pre;"></path>
  <path d="M 1287 34 Q 1274 34 1266 30 Q 1258 26 1254 19 Q 1250 12 1250 4 Q 1250 -11 1261 -20 Q 1272 -28 1293 -28 L 1320 -28 L 1320 -30 Q 1320 -42 1313 -48 Q 1307 -54 1297 -54 Q 1288 -54 1281 -49 Q 1275 -45 1273 -36 L 1252 -36 Q 1253 -47 1259 -55 Q 1266 -63 1275 -67 Q 1285 -71 1297 -71 Q 1318 -71 1330 -60 Q 1341 -49 1341 -30 L 1341 32 L 1323 32 L 1321 15 Q 1317 23 1308 29 Q 1300 34 1287 34 Z M 1291 17 Q 1300 17 1306 13 Q 1312 9 1316 2 Q 1319 -5 1320 -14 L 1296 -14 Q 1283 -14 1277 -9 Q 1272 -5 1272 2 Q 1272 9 1277 13 Q 1282 17 1291 17 Z" style="fill: rgb(80, 150, 80); white-space: pre;"></path>
  <path d="M 1404 34 Q 1386 34 1375 23 Q 1365 12 1365 -11 L 1365 -69 L 1386 -69 L 1386 -13 Q 1386 16 1410 16 Q 1422 16 1430 8 Q 1438 -1 1438 -17 L 1438 -69 L 1459 -69 L 1459 32 L 1440 32 L 1438 14 Q 1434 24 1425 29 Q 1416 34 1404 34 Z" style="fill: rgb(80, 150, 80); white-space: pre;"></path>
  <path d="M 1487 32 L 1487 -69 L 1506 -69 L 1508 -55 Q 1512 -62 1520 -67 Q 1528 -71 1539 -71 Q 1563 -71 1572 -52 Q 1578 -61 1587 -66 Q 1596 -71 1607 -71 Q 1626 -71 1637 -60 Q 1648 -49 1648 -26 L 1648 32 L 1626 32 L 1626 -24 Q 1626 -53 1604 -53 Q 1592 -53 1585 -44 Q 1578 -36 1578 -20 L 1578 32 L 1556 32 L 1556 -24 Q 1556 -53 1534 -53 Q 1523 -53 1515 -44 Q 1508 -36 1508 -20 L 1508 32 Z" style="fill: rgb(80, 150, 80); white-space: pre;"></path>
  <path d="M 1717 32 L 1717 15 L 1771 -51 L 1718 -51 L 1718 -69 L 1796 -69 L 1796 -51 L 1741 14 L 1797 14 L 1797 32 Z" style="fill: rgb(80, 150, 80); white-space: pre;"></path>
  <path d="M 1853 34 Q 1840 34 1832 30 Q 1823 26 1819 19 Q 1815 12 1815 4 Q 1815 -11 1827 -20 Q 1838 -28 1859 -28 L 1886 -28 L 1886 -30 Q 1886 -42 1879 -48 Q 1873 -54 1863 -54 Q 1854 -54 1847 -49 Q 1841 -45 1839 -36 L 1818 -36 Q 1819 -47 1825 -55 Q 1831 -63 1841 -67 Q 1851 -71 1863 -71 Q 1884 -71 1896 -60 Q 1907 -49 1907 -30 L 1907 32 L 1888 32 L 1887 15 Q 1882 23 1874 29 Q 1866 34 1853 34 Z M 1857 17 Q 1866 17 1872 13 Q 1878 9 1881 2 Q 1885 -5 1885 -14 L 1861 -14 Q 1849 -14 1843 -9 Q 1838 -5 1838 2 Q 1838 9 1843 13 Q 1848 17 1857 17 Z M 1880 -83 Q 1875 -83 1872 -87 Q 1868 -90 1868 -95 Q 1868 -100 1872 -103 Q 1875 -106 1880 -106 Q 1884 -106 1887 -103 Q 1891 -100 1891 -95 Q 1891 -90 1887 -87 Q 1884 -83 1880 -83 Z M 1845 -83 Q 1840 -83 1837 -87 Q 1834 -90 1834 -95 Q 1834 -100 1837 -103 Q 1840 -106 1845 -106 Q 1850 -106 1853 -103 Q 1856 -100 1856 -95 Q 1856 -90 1853 -87 Q 1850 -83 1845 -83 Z" style="fill: rgb(80, 150, 80); white-space: pre;"></path>
  <path d="M 1932 32 L 1932 -114 L 1954 -114 L 1954 -53 Q 1959 -61 1968 -66 Q 1977 -71 1988 -71 Q 2006 -71 2017 -60 Q 2027 -49 2027 -26 L 2027 32 L 2006 32 L 2006 -24 Q 2006 -53 1982 -53 Q 1970 -53 1962 -44 Q 1954 -36 1954 -20 L 1954 32 Z" style="fill: rgb(80, 150, 80); white-space: pre;"></path>
  <path d="M 2052 32 L 2052 -114 L 2074 -114 L 2074 32 Z" style="fill: rgb(80, 150, 80); white-space: pre;"></path>
  <path d="M 2143 32 Q 2129 32 2120 25 Q 2111 18 2111 -1 L 2111 -51 L 2094 -51 L 2094 -69 L 2111 -69 L 2114 -94 L 2133 -94 L 2133 -69 L 2161 -69 L 2161 -51 L 2133 -51 L 2133 -1 Q 2133 7 2136 11 Q 2140 14 2149 14 L 2160 14 L 2160 32 Z" style="fill: rgb(80, 150, 80); white-space: pre;"></path>
  <path d="M 2188 -10 L 2185 -110 L 2208 -110 L 2206 -10 Z M 2198 33 Q 2191 33 2187 29 Q 2183 25 2183 20 Q 2183 14 2187 10 Q 2191 6 2198 6 Q 2203 6 2207 10 Q 2211 14 2211 20 Q 2211 25 2207 29 Q 2203 33 2198 33 Z" style="fill: rgb(80, 150, 80); white-space: pre;"></path>
  <path d="M 525 296 L 525 179 L 543 179 L 543 229 L 589 179 L 610 179 L 567 226 L 611 296 L 590 296 L 555 239 L 543 252 L 543 296 Z" style="fill: rgb(80, 150, 80); white-space: pre;"></path>
  <path d="M 626 296 L 626 176 L 644 176 L 644 296 Z" style="fill: rgb(80, 150, 80); white-space: pre;"></path>
  <path d="M 676 198 Q 671 198 668 195 Q 665 191 665 187 Q 665 182 668 179 Q 671 176 676 176 Q 681 176 684 179 Q 688 182 688 187 Q 688 191 684 195 Q 681 198 676 198 Z M 667 296 L 667 213 L 685 213 L 685 296 Z" style="fill: rgb(80, 150, 80); white-space: pre;"></path>
  <path d="M 708 296 L 708 213 L 724 213 L 725 225 Q 729 219 736 215 Q 743 211 751 211 Q 771 211 779 227 Q 783 220 791 215 Q 798 211 807 211 Q 823 211 831 221 Q 840 230 840 248 L 840 296 L 823 296 L 823 250 Q 823 226 804 226 Q 795 226 789 233 Q 783 240 783 253 L 783 296 L 765 296 L 765 250 Q 765 226 747 226 Q 738 226 732 233 Q 726 240 726 253 L 726 296 Z" style="fill: rgb(80, 150, 80); white-space: pre;"></path>
  <path d="M 889 298 Q 878 298 872 294 Q 865 291 861 285 Q 858 279 858 273 Q 858 261 867 254 Q 877 247 894 247 L 916 247 L 916 245 Q 916 235 910 231 Q 905 226 897 226 Q 890 226 884 229 Q 879 233 878 240 L 860 240 Q 861 231 866 225 Q 871 218 879 215 Q 887 211 897 211 Q 914 211 924 220 Q 933 229 933 245 L 933 296 L 918 296 L 917 282 Q 913 289 906 293 Q 900 298 889 298 Z M 892 284 Q 900 284 904 280 Q 909 277 912 271 Q 915 265 916 259 L 896 259 Q 885 259 881 262 Q 877 266 877 271 Q 877 277 881 280 Q 885 284 892 284 Z" style="fill: rgb(80, 150, 80); white-space: pre;"></path>
  <path d="M 1001 298 Q 991 298 983 294 Q 976 290 972 283 L 970 296 L 954 296 L 954 176 L 972 176 L 972 226 Q 976 220 983 216 Q 990 211 1001 211 Q 1013 211 1022 217 Q 1031 223 1036 232 Q 1042 242 1042 255 Q 1042 267 1036 277 Q 1031 287 1022 292 Q 1013 298 1001 298 Z M 998 283 Q 1009 283 1016 275 Q 1024 267 1024 255 Q 1024 246 1020 240 Q 1017 234 1011 230 Q 1005 227 998 227 Q 986 227 979 234 Q 972 242 972 255 Q 972 267 979 275 Q 986 283 998 283 Z" style="fill: rgb(80, 150, 80); white-space: pre;"></path>
  <path d="M 1089 298 Q 1078 298 1071 294 Q 1065 291 1061 285 Q 1058 279 1058 273 Q 1058 261 1067 254 Q 1077 247 1094 247 L 1116 247 L 1116 245 Q 1116 235 1110 231 Q 1105 226 1097 226 Q 1089 226 1084 229 Q 1079 233 1077 240 L 1060 240 Q 1061 231 1066 225 Q 1071 218 1079 215 Q 1087 211 1097 211 Q 1114 211 1124 220 Q 1133 229 1133 245 L 1133 296 L 1118 296 L 1116 282 Q 1113 289 1106 293 Q 1100 298 1089 298 Z M 1092 284 Q 1099 284 1104 280 Q 1109 277 1112 271 Q 1115 265 1115 259 L 1096 259 Q 1085 259 1081 262 Q 1076 266 1076 271 Q 1076 277 1081 280 Q 1085 284 1092 284 Z" style="fill: rgb(80, 150, 80); white-space: pre;"></path>
  <path d="M 1184 298 Q 1169 298 1161 289 Q 1152 279 1152 261 L 1152 213 L 1170 213 L 1170 259 Q 1170 283 1190 283 Q 1199 283 1206 276 Q 1212 269 1212 256 L 1212 213 L 1230 213 L 1230 296 L 1214 296 L 1213 281 Q 1209 289 1201 294 Q 1194 298 1184 298 Z" style="fill: rgb(80, 150, 80); white-space: pre;"></path>
  <path d="M 1252 296 L 1252 213 L 1268 213 L 1269 225 Q 1273 219 1280 215 Q 1287 211 1295 211 Q 1315 211 1323 227 Q 1327 220 1335 215 Q 1342 211 1351 211 Q 1367 211 1375 221 Q 1384 230 1384 248 L 1384 296 L 1367 296 L 1367 250 Q 1367 226 1348 226 Q 1339 226 1333 233 Q 1327 240 1327 253 L 1327 296 L 1309 296 L 1309 250 Q 1309 226 1291 226 Q 1282 226 1276 233 Q 1270 240 1270 253 L 1270 296 Z" style="fill: rgb(80, 150, 80); white-space: pre;"></path>
  <path d="M 1433 298 Q 1422 298 1416 294 Q 1409 291 1405 285 Q 1402 279 1402 273 Q 1402 261 1411 254 Q 1421 247 1438 247 L 1460 247 L 1460 245 Q 1460 235 1455 231 Q 1449 226 1441 226 Q 1434 226 1428 229 Q 1423 233 1422 240 L 1404 240 Q 1405 231 1410 225 Q 1415 218 1423 215 Q 1431 211 1441 211 Q 1458 211 1468 220 Q 1477 229 1477 245 L 1477 296 L 1462 296 L 1461 282 Q 1457 289 1450 293 Q 1444 298 1433 298 Z M 1436 284 Q 1444 284 1449 280 Q 1453 277 1456 271 Q 1459 265 1460 259 L 1440 259 Q 1429 259 1425 262 Q 1421 266 1421 271 Q 1421 277 1425 280 Q 1429 284 1436 284 Z" style="fill: rgb(80, 150, 80); white-space: pre;"></path>
  <path d="M 1498 296 L 1498 176 L 1516 176 L 1516 247 L 1547 213 L 1569 213 L 1533 251 L 1574 296 L 1551 296 L 1516 254 L 1516 296 Z" style="fill: rgb(80, 150, 80); white-space: pre;"></path>
  <path d="M 1622 296 Q 1610 296 1603 290 Q 1596 284 1596 269 L 1596 228 L 1581 228 L 1581 213 L 1596 213 L 1598 192 L 1613 192 L 1613 213 L 1637 213 L 1637 228 L 1613 228 L 1613 269 Q 1613 276 1616 278 Q 1619 281 1626 281 L 1636 281 L 1636 296 Z" style="fill: rgb(80, 150, 80); white-space: pre;"></path>
  <path d="M 1665 198 Q 1660 198 1657 195 Q 1653 191 1653 187 Q 1653 182 1657 179 Q 1660 176 1665 176 Q 1670 176 1673 179 Q 1676 182 1676 187 Q 1676 191 1673 195 Q 1670 198 1665 198 Z M 1656 296 L 1656 213 L 1674 213 L 1674 296 Z" style="fill: rgb(80, 150, 80); white-space: pre;"></path>
  <path d="M 1736 298 Q 1724 298 1714 293 Q 1705 287 1699 277 Q 1694 268 1694 255 Q 1694 242 1700 232 Q 1705 222 1715 217 Q 1724 211 1736 211 Q 1748 211 1757 217 Q 1766 222 1772 232 Q 1778 242 1778 255 Q 1778 268 1772 277 Q 1766 287 1757 293 Q 1747 298 1736 298 Z M 1736 283 Q 1742 283 1747 280 Q 1753 276 1756 270 Q 1759 264 1759 255 Q 1759 245 1756 239 Q 1753 233 1748 230 Q 1742 226 1736 226 Q 1729 226 1724 230 Q 1719 233 1715 239 Q 1712 245 1712 255 Q 1712 264 1715 270 Q 1719 276 1724 280 Q 1729 283 1736 283 Z" style="fill: rgb(80, 150, 80); white-space: pre;"></path>
  <path d="M 1797 296 L 1797 213 L 1812 213 L 1814 228 Q 1818 220 1825 216 Q 1832 211 1842 211 Q 1857 211 1866 221 Q 1874 230 1874 248 L 1874 296 L 1857 296 L 1857 250 Q 1857 226 1837 226 Q 1827 226 1821 233 Q 1814 240 1814 253 L 1814 296 Z" style="fill: rgb(80, 150, 80); white-space: pre;"></path>
  <path d="M 1982 298 Q 1969 298 1959 293 Q 1949 288 1943 278 Q 1937 268 1937 252 L 1937 179 L 1955 179 L 1955 252 Q 1955 268 1962 275 Q 1969 282 1982 282 Q 1994 282 2002 275 Q 2009 268 2009 252 L 2009 179 L 2027 179 L 2027 252 Q 2027 268 2020 278 Q 2014 288 2004 293 Q 1994 298 1982 298 Z" style="fill: rgb(80, 150, 80); white-space: pre;"></path>
  <path d="M 2049 296 L 2049 176 L 2066 176 L 2066 296 Z" style="fill: rgb(80, 150, 80); white-space: pre;"></path>
  <path d="M 2089 296 L 2089 213 L 2104 213 L 2106 225 Q 2110 219 2116 215 Q 2123 211 2132 211 Q 2151 211 2159 227 Q 2163 220 2171 215 Q 2179 211 2187 211 Q 2203 211 2212 221 Q 2221 230 2221 248 L 2221 296 L 2203 296 L 2203 250 Q 2203 226 2185 226 Q 2175 226 2169 233 Q 2163 240 2163 253 L 2163 296 L 2146 296 L 2146 250 Q 2146 226 2127 226 Q 2118 226 2112 233 Q 2106 240 2106 253 L 2106 296 Z" style="fill: rgb(80, 150, 80); white-space: pre;"></path>
</svg>
