<?xml version="1.0" encoding="UTF-8"?><svg id="Ebene_1" xmlns="http://www.w3.org/2000/svg" viewBox="0 0 849.39 849.39"><defs><style>.cls-1{fill:#255a53;}.cls-2{fill:#255a53;stroke:#255a53;stroke-miterlimit:10;}.cls-3{fill:#255a53;}.cls-4{fill:#F5F7F2;stroke:none;}</style></defs><rect class="cls-4" x=".5" y=".5" width="848.39" height="848.39" rx="22.68" ry="22.68"/><path class="cls-1" d="M369.44,76.16c-6.36-8.05-12.51-16.24-18.89-24.28-1.81-2.28-1.89-5.24-.92-7.9-.26-.25-.49-.46-.66-.62-2.02-1.9-4.9-2.96-7.94-2.89-3.02,.06-5.86,1.22-7.78,3.2-12.97,13.32-295.11,305.77-260.93,484.64,.43-.11,.87-.19,1.33-.25,2.66-.95,5.28-2,7.85-2.98,3.49-1.33,6.99-2.64,10.49-3.95C67.21,365.72,296.39,111.35,341.64,62.91c7.28,7.09,19.07,18.78,33.77,34.05,1.87-2.11,4.03-4.04,6.41-5.76-3.99-5.11-8.37-9.95-12.39-15.05Z"/><path class="cls-1" d="M331.63,120.93c-.1,.03-.2,.04-.31,.07V661.64c6.93,.33,13.85,1.87,20.77-.39V119.26c-6.86,.31-13.8-.08-20.46,1.67Z"/><path class="cls-2" d="M341.76,762.14c5.45-4.32,10.01-69.94,9.83-83.21,0,0,0,0,0,0,0,0,0-.01,0-.02v-38.34h-19.76v38.34s0,.01,0,.02c0,0,0,0,0,0-.17,12.84,4.57,78.69,9.93,83.21Z"/><path class="cls-1" d="M395.7,716.19h-38.83c-.67,0-1.32-.1-1.91-.27-.74,12.71-4.03,56.05-13.27,56.39-.05,0-.09,0-.15,0-.61,0-1.46-.14-2.33-.74-6.84-4.75-10.49-43.24-11.21-55.64-.58,.16-1.21,.26-1.87,.26h-38.86c-.96,0-1.73,.56-1.73,1.25v33.25c0,41.58,47.77,60.8,55.94,63.78,8.19-2.98,55.94-22.16,55.94-63.78v-33.25c0-.69-.78-1.25-1.73-1.25Z"/><rect class="cls-2" x="679.46" y=".5" width="97" height="848.39"/><g><path class="cls-3" d="M721.49,717.52c.7,0,1.59-.02,2.68-.05,1.09-.03,1.94-.05,2.57-.05,2.1,0,4.31,.16,6.61,.47,2.31,.32,4.27,.86,5.88,1.63,2.52,1.19,4.81,2.71,6.88,4.57,2.07,1.86,3.85,3.92,5.35,6.2,1.51,2.28,2.68,4.67,3.52,7.19,.84,2.52,1.26,5.08,1.26,7.67,0,3.78-.75,7.37-2.26,10.76-1.5,3.4-3.55,6.35-6.14,8.87-2.59,2.52-5.6,4.51-9.03,5.99-3.43,1.47-7.04,2.21-10.82,2.21s-7.49-.75-10.92-2.26c-3.43-1.5-6.44-3.53-9.03-6.09-2.59-2.55-4.62-5.51-6.09-8.87-1.47-3.36-2.21-6.89-2.21-10.6,0-1.82,.23-3.73,.68-5.72,.46-2,1.17-4.18,2.15-6.56l4.73,1.16c-1.12,2.17-1.89,4.18-2.31,6.04-.42,1.86-.63,3.52-.63,4.99,0,3.29,.67,6.35,2,9.19,1.33,2.83,3.08,5.3,5.25,7.4,2.17,2.1,4.69,3.75,7.56,4.94,2.87,1.19,5.81,1.79,8.82,1.79,3.36,0,6.48-.63,9.35-1.89,2.87-1.26,5.37-2.97,7.51-5.14,2.14-2.17,3.8-4.64,4.99-7.4,1.19-2.76,1.78-5.69,1.78-8.77,0-2.17-.33-4.32-1-6.46-.66-2.13-1.63-4.15-2.89-6.04-1.26-1.89-2.76-3.59-4.52-5.09-1.75-1.5-3.71-2.78-5.88-3.83h.1c-1.54-.56-3.24-1.01-5.09-1.37-1.85-.35-3.73-.53-5.62-.53h-.63v20.06h-4.62v-24.36Z"/><path class="cls-3" d="M699.96,683.34c0-3.93,.73-7.61,2.21-11.04,1.47-3.44,3.48-6.42,6.04-8.94,2.56-2.52,5.55-4.52,8.98-6,3.43-1.47,7.11-2.21,11.03-2.21s7.58,.74,10.97,2.21c3.4,1.47,6.37,3.47,8.93,6,2.56,2.53,4.57,5.51,6.04,8.94,1.47,3.44,2.21,7.12,2.21,11.04s-.73,7.59-2.21,10.99c-1.47,3.4-3.48,6.38-6.04,8.94-2.55,2.56-5.53,4.58-8.93,6.05-3.39,1.47-7.05,2.21-10.97,2.21s-7.59-.74-11.03-2.21c-3.43-1.47-6.42-3.49-8.98-6.05-2.55-2.56-4.57-5.54-6.04-8.94-1.47-3.4-2.21-7.07-2.21-10.99Zm28.25-23.57c-3.29,0-6.37,.61-9.24,1.83-2.87,1.22-5.37,2.92-7.51,5.08-2.13,2.17-3.81,4.68-5.04,7.54-1.22,2.86-1.84,5.9-1.84,9.11s.61,6.36,1.84,9.22c1.23,2.86,2.91,5.36,5.04,7.49,2.14,2.13,4.64,3.81,7.51,5.03,2.87,1.22,5.95,1.83,9.24,1.83s6.35-.61,9.19-1.83c2.83-1.22,5.32-2.9,7.45-5.03,2.14-2.13,3.82-4.63,5.04-7.49,1.23-2.87,1.84-5.94,1.84-9.22s-.61-6.25-1.84-9.11c-1.22-2.87-2.9-5.38-5.04-7.54-2.13-2.17-4.62-3.86-7.45-5.08-2.84-1.22-5.9-1.83-9.19-1.83Z"/><path class="cls-3" d="M755.72,605.8h-55.23v-18.11c0-2.32,.44-4.48,1.31-6.48,.88-2,2.08-3.76,3.62-5.27,1.54-1.51,3.36-2.7,5.46-3.58s4.34-1.32,6.72-1.32,4.5,.44,6.56,1.31c2.07,.88,3.85,2.05,5.36,3.52,1.51,1.47,2.7,3.2,3.57,5.2,.88,2,1.31,4.15,1.31,6.46v13.65h21.31v4.62Zm-50.61-4.62h24.67v-13.59c0-1.67-.33-3.22-.99-4.65-.66-1.43-1.53-2.68-2.6-3.76-1.08-1.08-2.36-1.93-3.85-2.56-1.49-.63-3.07-.94-4.74-.94s-3.36,.31-4.89,.94c-1.53,.63-2.85,1.48-3.96,2.56-1.11,1.08-1.99,2.35-2.65,3.82-.66,1.46-.99,3.03-.99,4.71v13.49Z"/><path class="cls-3" d="M751.1,525.58h4.62v36.22h-55.23v-4.62h50.61v-31.6Z"/><path class="cls-3" d="M699.96,500.59c9.03-3.85,18.04-7.67,27.04-11.45,9-3.78,18.25-7.59,27.77-11.45l1.05,3.99-20.69,9.03v19.32l20.9,9.03-1.05,4.2-55.02-22.68Zm31.29-8.08l-20.79,8.08c1.26,.49,2.57,1,3.94,1.52,1.36,.52,2.87,1.09,4.51,1.68,1.65,.6,3.47,1.28,5.46,2.05,1.99,.77,4.29,1.61,6.88,2.52v-15.85Z"/><path class="cls-3" d="M701.22,425.93h55.02l-44.83,37.27h44.31v4.62h-56.28l44.83-37.27h-43.05v-4.62Z"/><path class="cls-3" d="M700.49,369.55h4.62v21.42h50.61v4.62h-50.61v21.52h-4.62v-47.56Z"/><path class="cls-3" d="M699.96,310.12c9.03-3.85,18.04-7.67,27.04-11.45,9-3.78,18.25-7.59,27.77-11.45l1.05,3.99-20.69,9.03v19.32l20.9,9.03-1.05,4.2-55.02-22.68Zm31.29-8.08l-20.79,8.08c1.26,.49,2.57,1,3.94,1.52,1.36,.52,2.87,1.09,4.51,1.68,1.65,.6,3.47,1.28,5.46,2.05,1.99,.77,4.29,1.61,6.88,2.52v-15.85Z"/><path class="cls-3" d="M700.49,203.13h4.62v21.42h50.61v4.62h-50.61v21.52h-4.62v-47.56Z"/><path class="cls-3" d="M734.51,190.21h21.21v4.41h-55.23v-15.65c0-2.45,.47-4.71,1.42-6.77,.94-2.06,2.2-3.85,3.78-5.35,1.57-1.5,3.39-2.68,5.45-3.52,2.06-.84,4.18-1.26,6.35-1.26,3.43,0,6.56,.89,9.39,2.68,2.83,1.79,4.88,4.32,6.14,7.61l7.36-5.77c1.05-.84,2.26-1.77,3.63-2.78,1.37-1.01,2.73-2.05,4.1-3.1,1.37-1.05,2.72-2.08,4.05-3.1,1.33-1.01,2.52-1.91,3.57-2.68v5.78l-21.21,16.38v13.12Zm-29.4,0h24.78v-11.24c0-1.75-.33-3.39-.99-4.93-.66-1.54-1.54-2.87-2.65-3.99-1.11-1.12-2.41-2-3.9-2.62-1.49-.63-3.07-.95-4.74-.95s-3.36,.32-4.89,.95c-1.53,.63-2.85,1.51-3.96,2.62-1.11,1.12-2,2.45-2.66,3.99-.66,1.54-.99,3.19-.99,4.93v11.24Z"/><path class="cls-3" d="M755.72,147.37h-55.23v-31.92h4.62v27.3h15.75v-18.38h4.62v18.38h25.62v-29.19h4.62v33.81Z"/><path class="cls-3" d="M755.72,106h-55.23v-31.92h4.62v27.3h15.75v-18.38h4.62v18.38h25.62v-29.19h4.62v33.81Z"/></g><path class="cls-1" d="M352.09,125.08V56.62c0-5.09-4.65-9.22-10.38-9.22s-10.38,4.13-10.38,9.22V125.08h20.77Z"/><path class="cls-1" d="M350.91,432.42l67.02-74.47c4.99-5.54,5.57-13.14,1.31-16.98-4.26-3.84-11.76-2.45-16.75,3.09l-67.02,74.47,15.44,13.89Z"/><path class="cls-1" d="M421.77,345.59l-12.31-101.57c-.92-7.56-6.27-13.13-11.97-12.44-5.69,.69-9.57,7.38-8.65,14.94l12.31,101.57,20.62-2.5Z"/><path class="cls-1" d="M413.77,280.59l-8.24-67.96c-.61-5.06-5.73-8.6-11.42-7.91s-9.81,5.35-9.2,10.41l8.24,67.96,20.62-2.5Z"/><path class="cls-1" d="M440.6,230.35c-4.55-3.49-10.76-3.03-13.85,1.01l-24.32,31.76c-.34,11.21-1.79,22.33-3.1,33.47l2.29,1.75,41.62-54.35c3.1-4.04,1.92-10.15-2.64-13.64Z"/><path class="cls-1" d="M519,401.26l-40-.67c-5.7,3.95-11.62,7.55-17.62,11.03-.58,3.19-1.39,6.32-2.38,9.41l59.65,.99c5.09,.08,9.3-4.5,9.4-10.23,.1-5.73-3.96-10.45-9.05-10.54Z"/><path class="cls-1" d="M469.75,454.29l22.24-85.15c1.65-6.34-1.5-12.65-7.05-14.1s-11.39,2.51-13.04,8.85l-22.24,85.15,20.09,5.25Z"/><path class="cls-1" d="M350.35,538.78l109.97-73.48c8.18-5.47,12.24-13.77,9.05-18.53-3.19-4.77-12.4-4.2-20.59,1.27l-109.97,73.48,11.54,17.27Z"/><path class="cls-1" d="M341.5,613.69l92.51-38.45c6.88-2.86,10.68-9.47,8.48-14.77-2.2-5.3-9.57-7.27-16.45-4.41l-92.51,38.45,7.97,19.18Z"/><path class="cls-1" d="M340.47,602.86l-156.39-55.07c-11.64-4.1-22.62-3.03-24.52,2.37-1.9,5.41,5.99,13.12,17.62,17.22l156.39,55.07,6.9-19.59Z"/><path class="cls-1" d="M179.5,547.08l-33.22-68.43c-2.47-5.09-8.66-7.19-13.82-4.69s-7.34,8.66-4.87,13.76l33.22,68.43,18.68-9.07Z"/><path class="cls-1" d="M224.89,570.37c2.06,.29,4.12,.5,6.18,.53,4.87,.09,9.63-1.2,14.53-.77,.84,.07,1.65,.19,2.43,.34l-17.13-35.28c-2.39-4.93-8.52-6.9-13.68-4.4-5.16,2.5-7.4,8.53-5.01,13.47l12.67,26.1Z"/><path class="cls-1" d="M347.47,412.93l-56.34-46.71c-4.19-3.48-10.56-2.71-14.22,1.7s-3.23,10.81,.96,14.29l56.34,46.71,13.26-15.99Z"/><path class="cls-1" d="M279.95,378.83l15.2-7.38-42.5-87.55c-3.16-6.52-9.96-9.74-15.18-7.21-5.22,2.54-6.89,9.87-3.73,16.39l42.17,86.86c1.16-.61,2.51-1,4.06-1.11Z"/><path class="cls-1" d="M262.01,338.54c-1.9-5.26-4.19-9.94-5.65-14.97l-38.66-12.38c-5.22-1.67-10.87,1.4-12.62,6.86-1.75,5.46,1.07,11.25,6.29,12.92l53.42,17.11c-.9-3.17-1.64-6.4-2.77-9.54Z"/><path class="cls-1" d="M344.51,514l-71.22-18.9c-5.3-1.41-10.79,1.95-12.26,7.49-1.47,5.54,1.63,11.18,6.93,12.58l71.22,18.9,5.33-20.07Z"/><path class="cls-1" d="M445.66,464.99l-32.18-66.29c-2.39-4.93-8.52-6.9-13.68-4.4s-7.4,8.53-5.01,13.47l32.18,66.29,18.68-9.07Z"/><path class="cls-1" d="M267,510.41l13.41-10.27-59.18-77.27c-4.4-5.75-11.71-7.55-16.32-4.02-4.61,3.53-4.78,11.05-.37,16.8l58.71,76.65c1.01-.83,2.26-1.48,3.75-1.9Z"/><path class="cls-1" d="M228.33,459.64l13.51-10.14-58.43-77.83c-4.35-5.79-11.64-7.66-16.28-4.18-4.64,3.49-4.88,11.01-.53,16.8l57.97,77.21c1.02-.82,2.27-1.46,3.77-1.86Z"/><path class="cls-1" d="M216.43,428.58c-2.63-2.88-5.13-5.9-7.28-9.15-.74-1.11-1.17-2.31-1.36-3.54l-39.47-3.49c-5.07-.45-9.6,3.82-10.1,9.53-.51,5.71,3.2,10.71,8.27,11.16l39.85,3.52c3.81-2.25,7.7-4.35,11.63-6.36-.51-.55-1.03-1.11-1.54-1.67Z"/><path class="cls-1" d="M91.26,515.74c-.64,.14-1.29,.25-1.93,.36-5.88,2.5-11.68,5.26-17.5,7.99,.41,1.34,.58,2.75,.51,4.16,2.86,12.97,7.41,25.82,13.64,38.56,5.34-4.86,10.76-9.63,16.26-14.3-5.41-12.19-9.08-24.45-10.97-36.77Z"/><path class="cls-1" d="M114.47,574.04c-3.26-4.65-6.23-9.39-8.86-14.22-3.57,1.1-7.14,2.21-10.72,3.29-2.64,.8-5.35,1.57-8.04,2.44-.4,.24-.8,.44-1.2,.62,3.6,7.09,12.79,21.76,11.74,19.52-.1-.2,11.46-7.67,17.09-11.64Z"/><path class="cls-1" d="M83.78,556.9s.45,1.28,.55,1.64c.18,.36,.43,.86,.47,.94,.57,1.16,1.1,2.35,1.68,3.51,1.48,2.95,3.06,5.71,4.15,8.85,.08,.24,.14,.48,.2,.73,5.71-2.88,11.32-5.92,16.92-9.01-2.72-4.98-5.15-10.01-7.24-15.11-3.67,.7-7.34,1.41-11.02,2.09-2.71,.5-5.49,.97-8.26,1.54-.11,.05-.21,.08-.32,.12,1.35,1.29,2.38,2.91,2.87,4.7Z"/><path class="cls-1" d="M112.22,593.86c1.52-.88,3.13-1.62,4.74-2.54,.63-.36,1.21-.8,1.83-1.16,.14-.13,.28-.25,.42-.38,.1-.1-3.98,.74,.31-.31,5.29-1.3,6.07-2.43,3.33-5.6-5.01-5.52-9.51-11.3-13.46-17.35-.08,.16-.16,.32-.25,.47-1.87,3.09-3.88,6.11-5.96,9.07-1.21,1.72-2.57,3.35-3.74,5.1,.88-1.31-1.46,3.1-.82,1.31-.37,1.06-.87,2.05-1.46,2.95,.03,.08,.08,.16,.11,.25,2.63,3.51,5.44,6.93,8.4,10.26,.17,.19,.34,.39,.52,.58,1.48-1.45,3.49-2.44,6.04-2.65Z"/><path class="cls-1" d="M345.37,659.3c-.67-2.16-.68-4.26-.12-6.17-89.1-5.63-175.02-24.17-222.29-69.05-3.06,2.14-6.12,4.29-9.19,6.42-2.26,1.57-4.61,3.13-6.9,4.79-.31,.35-.63,.67-.95,.96,.18,.18,.35,.35,.53,.53,50.63,50.6,143.17,70.92,237.94,76.76-1.65-4.84-1.18-9.94,.99-14.23Z"/><path class="cls-1" d="M313.82,75.53c6.36-8.05,12.51-16.24,18.89-24.28,1.81-2.28,1.89-5.24,.92-7.9,.26-.25,.49-.46,.66-.62,2.02-1.9,4.9-2.96,7.94-2.89,3.02,.06,5.86,1.22,7.78,3.2,12.97,13.32,295.11,305.77,260.93,484.64-.43-.11-.87-.19-1.33-.25-2.66-.95-5.28-2-7.85-2.98-3.49-1.33-6.99-2.64-10.49-3.95,24.8-155.4-204.39-409.77-249.64-458.21-7.28,7.09-19.07,18.78-33.77,34.05-1.87-2.11-4.03-4.04-6.41-5.76,3.99-5.11,8.37-9.95,12.39-15.05Z"/><path class="cls-1" d="M592,515.1c.64,.14,1.29,.25,1.93,.36,5.88,2.5,11.68,5.26,17.5,7.99-.41,1.34-.58,2.75-.51,4.16-2.86,12.97-7.41,25.82-13.64,38.56-5.34-4.86-10.76-9.63-16.26-14.3,5.41-12.19,9.08-24.45,10.97-36.77Z"/><path class="cls-1" d="M568.78,573.41c3.26-4.65,6.23-9.39,8.86-14.22,3.57,1.1,7.14,2.21,10.72,3.29,2.64,.8,5.35,1.57,8.04,2.44,.4,.24,.8,.44,1.2,.62-3.6,7.09-12.79,21.76-11.74,19.52,.1-.2-11.46-7.67-17.09-11.64Z"/><path class="cls-1" d="M599.48,556.27s-.45,1.28-.55,1.64c-.18,.36-.43,.86-.47,.94-.57,1.16-1.1,2.35-1.68,3.51-1.48,2.95-3.06,5.71-4.15,8.85-.08,.24-.14,.48-.2,.73-5.71-2.88-11.32-5.92-16.92-9.01,2.72-4.98,5.15-10.01,7.24-15.11,3.67,.7,7.34,1.41,11.02,2.09,2.71,.5,5.49,.97,8.26,1.54,.11,.05,.21,.08,.32,.12-1.35,1.29-2.38,2.91-2.87,4.7Z"/><path class="cls-1" d="M571.04,593.23c-1.52-.88-3.13-1.62-4.74-2.54-.63-.36-1.21-.8-1.83-1.16-.14-.13-.28-.25-.42-.38-.1-.1,3.98,.74-.31-.31-5.29-1.3-6.07-2.43-3.33-5.6,5.01-5.52,9.51-11.3,13.46-17.35,.08,.16,.16,.32,.25,.47,1.87,3.09,3.88,6.11,5.96,9.07,1.21,1.72,2.57,3.35,3.74,5.1-.88-1.31,1.46,3.1,.82,1.31,.37,1.06,.87,2.05,1.46,2.95-.03,.08-.08,.16-.11,.25-2.63,3.51-5.44,6.93-8.4,10.26-.17,.19-.34,.39-.52,.58-1.48-1.45-3.49-2.44-6.04-2.65Z"/><path class="cls-1" d="M337.88,658.67c.67-2.16,.68-4.26,.12-6.17,89.1-5.63,175.02-24.17,222.29-69.05,3.06,2.14,6.12,4.29,9.19,6.42,2.26,1.57,4.61,3.13,6.9,4.79,.31,.35,.63,.67,.95,.96-.18,.18-.35,.35-.53,.53-50.63,50.6-143.17,70.92-237.94,76.76,1.65-4.84,1.18-9.94-.99-14.23Z"/></svg>